<svg width="47" height="46" viewBox="0 0 47 46" fill="none" xmlns="http://www.w3.org/2000/svg">
<rect x="1" y="0.5" width="45" height="45" rx="4.5" stroke="#ECECEC"/>
<path fill-rule="evenodd" clip-rule="evenodd" d="M20.0006 27.5009C20.0006 27.3683 20.0533 27.2411 20.1471 27.1473C20.2408 27.0536 20.368 27.0009 20.5006 27.0009H29.5006C29.6332 27.0009 29.7604 27.0536 29.8542 27.1473C29.948 27.2411 30.0006 27.3683 30.0006 27.5009C30.0006 27.6335 29.948 27.7607 29.8542 27.8544C29.7604 27.9482 29.6332 28.0009 29.5006 28.0009H20.5006C20.368 28.0009 20.2408 27.9482 20.1471 27.8544C20.0533 27.7607 20.0006 27.6335 20.0006 27.5009ZM20.0006 23.5009C20.0006 23.3683 20.0533 23.2411 20.1471 23.1473C20.2408 23.0536 20.368 23.0009 20.5006 23.0009H29.5006C29.6332 23.0009 29.7604 23.0536 29.8542 23.1473C29.948 23.2411 30.0006 23.3683 30.0006 23.5009C30.0006 23.6335 29.948 23.7607 29.8542 23.8544C29.7604 23.9482 29.6332 24.0009 29.5006 24.0009H20.5006C20.368 24.0009 20.2408 23.9482 20.1471 23.8544C20.0533 23.7607 20.0006 23.6335 20.0006 23.5009ZM20.0006 19.5009C20.0006 19.3683 20.0533 19.2411 20.1471 19.1473C20.2408 19.0536 20.368 19.0009 20.5006 19.0009H29.5006C29.6332 19.0009 29.7604 19.0536 29.8542 19.1473C29.948 19.2411 30.0006 19.3683 30.0006 19.5009C30.0006 19.6335 29.948 19.7607 29.8542 19.8544C29.7604 19.9482 29.6332 20.0009 29.5006 20.0009H20.5006C20.368 20.0009 20.2408 19.9482 20.1471 19.8544C20.0533 19.7607 20.0006 19.6335 20.0006 19.5009ZM18.8546 18.1469C18.9012 18.1933 18.9381 18.2485 18.9633 18.3093C18.9886 18.37 19.0015 18.4351 19.0015 18.5009C19.0015 18.5667 18.9886 18.6318 18.9633 18.6925C18.9381 18.7533 18.9012 18.8084 18.8546 18.8549L17.3546 20.3549C17.3082 20.4015 17.253 20.4384 17.1923 20.4636C17.1315 20.4888 17.0664 20.5018 17.0006 20.5018C16.9349 20.5018 16.8697 20.4888 16.809 20.4636C16.7483 20.4384 16.6931 20.4015 16.6466 20.3549L16.1466 19.8549C16.1001 19.8084 16.0633 19.7532 16.0381 19.6925C16.0129 19.6317 16 19.5666 16 19.5009C16 19.4351 16.0129 19.37 16.0381 19.3093C16.0633 19.2486 16.1001 19.1934 16.1466 19.1469C16.1931 19.1004 16.2483 19.0635 16.309 19.0384C16.3698 19.0132 16.4349 19.0003 16.5006 19.0003C16.5664 19.0003 16.6315 19.0132 16.6922 19.0384C16.753 19.0635 16.8081 19.1004 16.8546 19.1469L17.0006 19.2939L18.1466 18.1469C18.1931 18.1003 18.2483 18.0634 18.309 18.0382C18.3697 18.013 18.4349 18 18.5006 18C18.5664 18 18.6315 18.013 18.6923 18.0382C18.753 18.0634 18.8082 18.1003 18.8546 18.1469ZM18.8546 22.1469C18.9012 22.1933 18.9381 22.2485 18.9633 22.3093C18.9886 22.37 19.0015 22.4351 19.0015 22.5009C19.0015 22.5667 18.9886 22.6318 18.9633 22.6925C18.9381 22.7533 18.9012 22.8084 18.8546 22.8549L17.3546 24.3549C17.3082 24.4015 17.253 24.4384 17.1923 24.4636C17.1315 24.4888 17.0664 24.5018 17.0006 24.5018C16.9349 24.5018 16.8697 24.4888 16.809 24.4636C16.7483 24.4384 16.6931 24.4015 16.6466 24.3549L16.1466 23.8549C16.0527 23.761 16 23.6337 16 23.5009C16 23.3681 16.0527 23.2408 16.1466 23.1469C16.2405 23.053 16.3679 23.0003 16.5006 23.0003C16.6334 23.0003 16.7607 23.053 16.8546 23.1469L17.0006 23.2939L18.1466 22.1469C18.1931 22.1003 18.2483 22.0634 18.309 22.0382C18.3697 22.013 18.4349 22 18.5006 22C18.5664 22 18.6315 22.013 18.6923 22.0382C18.753 22.0634 18.8082 22.1003 18.8546 22.1469ZM18.8546 26.1469C18.9012 26.1933 18.9381 26.2485 18.9633 26.3093C18.9886 26.37 19.0015 26.4351 19.0015 26.5009C19.0015 26.5667 18.9886 26.6318 18.9633 26.6925C18.9381 26.7533 18.9012 26.8084 18.8546 26.8549L17.3546 28.3549C17.3082 28.4015 17.253 28.4384 17.1923 28.4636C17.1315 28.4888 17.0664 28.5018 17.0006 28.5018C16.9349 28.5018 16.8697 28.4888 16.809 28.4636C16.7483 28.4384 16.6931 28.4015 16.6466 28.3549L16.1466 27.8549C16.0527 27.761 16 27.6337 16 27.5009C16 27.3681 16.0527 27.2408 16.1466 27.1469C16.2405 27.053 16.3679 27.0003 16.5006 27.0003C16.6334 27.0003 16.7607 27.053 16.8546 27.1469L17.0006 27.2939L18.1466 26.1469C18.1931 26.1003 18.2483 26.0634 18.309 26.0382C18.3697 26.013 18.4349 26 18.5006 26C18.5664 26 18.6315 26.013 18.6923 26.0382C18.753 26.0634 18.8082 26.1003 18.8546 26.1469Z" fill="#737373"/>
</svg>
