<svg width="47" height="46" viewBox="0 0 47 46" fill="none" xmlns="http://www.w3.org/2000/svg">
<rect x="1" y="0.5" width="45" height="45" rx="4.5" stroke="#ECECEC"/>
<path d="M16.5 17.5C16.5 17.1022 16.658 16.7206 16.9393 16.4393C17.2206 16.158 17.6022 16 18 16H21C21.3978 16 21.7794 16.158 22.0607 16.4393C22.342 16.7206 22.5 17.1022 22.5 17.5V20.5C22.5 20.8978 22.342 21.2794 22.0607 21.5607C21.7794 21.842 21.3978 22 21 22H18C17.6022 22 17.2206 21.842 16.9393 21.5607C16.658 21.2794 16.5 20.8978 16.5 20.5V17.5ZM24.5 17.5C24.5 17.1022 24.658 16.7206 24.9393 16.4393C25.2206 16.158 25.6022 16 26 16H29C29.3978 16 29.7794 16.158 30.0607 16.4393C30.342 16.7206 30.5 17.1022 30.5 17.5V20.5C30.5 20.8978 30.342 21.2794 30.0607 21.5607C29.7794 21.842 29.3978 22 29 22H26C25.6022 22 25.2206 21.842 24.9393 21.5607C24.658 21.2794 24.5 20.8978 24.5 20.5V17.5ZM16.5 25.5C16.5 25.1022 16.658 24.7206 16.9393 24.4393C17.2206 24.158 17.6022 24 18 24H21C21.3978 24 21.7794 24.158 22.0607 24.4393C22.342 24.7206 22.5 25.1022 22.5 25.5V28.5C22.5 28.8978 22.342 29.2794 22.0607 29.5607C21.7794 29.842 21.3978 30 21 30H18C17.6022 30 17.2206 29.842 16.9393 29.5607C16.658 29.2794 16.5 28.8978 16.5 28.5V25.5ZM24.5 25.5C24.5 25.1022 24.658 24.7206 24.9393 24.4393C25.2206 24.158 25.6022 24 26 24H29C29.3978 24 29.7794 24.158 30.0607 24.4393C30.342 24.7206 30.5 25.1022 30.5 25.5V28.5C30.5 28.8978 30.342 29.2794 30.0607 29.5607C29.7794 29.842 29.3978 30 29 30H26C25.6022 30 25.2206 29.842 24.9393 29.5607C24.658 29.2794 24.5 28.8978 24.5 28.5V25.5Z" fill="#252B42"/>
</svg>
