<svg width="17" height="16" viewBox="0 0 17 16" fill="none" xmlns="http://www.w3.org/2000/svg">
<g clip-path="url(#clip0_31284_146)">
<path d="M16.3333 13.8333H2V0.833293C2 0.741626 1.925 0.666626 1.83333 0.666626H0.666667C0.575 0.666626 0.5 0.741626 0.5 0.833293V15.1666C0.5 15.2583 0.575 15.3333 0.666667 15.3333H16.3333C16.425 15.3333 16.5 15.2583 16.5 15.1666V14C16.5 13.9083 16.425 13.8333 16.3333 13.8333ZM3.5 12.5H14.6667C14.7583 12.5 14.8333 12.425 14.8333 12.3333V3.24996C14.8333 3.09996 14.6521 3.02704 14.5479 3.13121L10.1667 7.51246L7.55417 4.92913C7.52284 4.89811 7.48054 4.88071 7.43646 4.88071C7.39238 4.88071 7.35007 4.89811 7.31875 4.92913L3.38125 8.87913C3.36596 8.89445 3.35385 8.91264 3.34562 8.93267C3.3374 8.95269 3.33322 8.97415 3.33333 8.99579V12.3333C3.33333 12.425 3.40833 12.5 3.5 12.5Z" fill="#23856D"/>
</g>
<defs>
<clipPath id="clip0_31284_146">
<rect width="16" height="14.6667" fill="white" transform="translate(0.5 0.666626)"/>
</clipPath>
</defs>
</svg>
