<svg width="242" height="50" viewBox="0 0 242 50" fill="none" xmlns="http://www.w3.org/2000/svg">
<g clip-path="url(#clip0_2874_4661)">
<path d="M40 12.9825C38.8766 13.4802 37.685 13.8069 36.4649 13.9517C37.7358 13.19 38.7116 11.9837 39.1711 10.5466C37.963 11.2635 36.6412 11.7686 35.2628 12.0401C34.14 10.844 32.5405 10.0964 30.7702 10.0964C27.3711 10.0964 24.6152 12.8522 24.6152 16.2511C24.6152 16.7336 24.6696 17.2033 24.7745 17.6539C19.6593 17.3971 15.1241 14.9468 12.0884 11.2231C11.5587 12.1321 11.2552 13.1895 11.2552 14.3173C11.2552 16.4527 12.3419 18.3365 13.9933 19.4403C13.0159 19.4097 12.06 19.1457 11.2054 18.6703C11.205 18.6961 11.205 18.7219 11.205 18.7478C11.205 21.7299 13.3266 24.2175 16.1421 24.783C15.2358 25.0294 14.2851 25.0655 13.3627 24.8884C14.1459 27.3337 16.4189 29.113 19.1121 29.1628C17.0057 30.8135 14.3518 31.7976 11.4682 31.7976C10.9714 31.7976 10.4815 31.7684 10 31.7115C12.7238 33.4579 15.959 34.4768 19.4348 34.4768C30.7559 34.4768 36.9466 25.0982 36.9466 16.9649C36.9466 16.698 36.9407 16.4325 36.9288 16.1686C38.1337 15.2975 39.1737 14.2186 40 12.9825Z" fill="#55ACEE"/>
</g>
<g clip-path="url(#clip1_2874_4661)">
<path d="M102.344 40.0001C103.259 40.0001 104 39.2588 104 38.3444V11.6557C104 10.7412 103.259 10 102.344 10H75.6557C74.7411 10 74 10.7412 74 11.6557V38.3444C74 39.2588 74.7411 40.0001 75.6557 40.0001H102.344Z" fill="#395185"/>
<path d="M94.6993 40.0001V28.3824H98.5989L99.1828 23.8549H94.6993V20.9641C94.6993 19.6533 95.0634 18.76 96.9432 18.76L99.3407 18.7589V14.7095C98.9259 14.6543 97.5028 14.531 95.8471 14.531C92.3903 14.531 90.0239 16.641 90.0239 20.5159V23.8549H86.1143V28.3824H90.0239V40.0001H94.6993Z" fill="white"/>
</g>
<g clip-path="url(#clip2_2874_4661)">
<path d="M153 17.3089C148.744 17.3089 145.309 20.7439 145.309 25.0001C145.309 29.2564 148.744 32.6914 153 32.6914C157.256 32.6914 160.691 29.2564 160.691 25.0001C160.691 20.7439 157.256 17.3089 153 17.3089ZM153 29.9989C150.247 29.9989 148.001 27.7526 148.001 25.0001C148.001 22.2476 150.247 20.0014 153 20.0014C155.752 20.0014 157.999 22.2476 157.999 25.0001C157.999 27.7526 155.752 29.9989 153 29.9989ZM161.006 15.2014C160.012 15.2014 159.21 16.0039 159.21 16.9976C159.21 17.9914 160.012 18.7939 161.006 18.7939C162 18.7939 162.802 17.9951 162.802 16.9976C162.803 16.7617 162.756 16.5279 162.666 16.3099C162.576 16.0918 162.444 15.8937 162.277 15.7268C162.11 15.56 161.912 15.4277 161.694 15.3375C161.476 15.2473 161.242 15.2011 161.006 15.2014ZM167.992 25.0001C167.992 22.9301 168.011 20.8789 167.895 18.8126C167.779 16.4126 167.231 14.2826 165.476 12.5276C163.717 10.7689 161.591 10.2251 159.191 10.1089C157.121 9.99262 155.07 10.0114 153.004 10.0114C150.934 10.0114 148.882 9.99262 146.816 10.1089C144.416 10.2251 142.286 10.7726 140.531 12.5276C138.772 14.2864 138.229 16.4126 138.112 18.8126C137.996 20.8826 138.015 22.9339 138.015 25.0001C138.015 27.0664 137.996 29.1214 138.112 31.1876C138.229 33.5876 138.776 35.7176 140.531 37.4726C142.29 39.2314 144.416 39.7751 146.816 39.8914C148.886 40.0076 150.937 39.9889 153.004 39.9889C155.074 39.9889 157.125 40.0076 159.191 39.8914C161.591 39.7751 163.721 39.2276 165.476 37.4726C167.235 35.7139 167.779 33.5876 167.895 31.1876C168.015 29.1214 167.992 27.0701 167.992 25.0001ZM164.692 33.8426C164.419 34.5251 164.089 35.0351 163.56 35.5601C163.031 36.0889 162.525 36.4189 161.842 36.6926C159.87 37.4764 155.186 37.3001 153 37.3001C150.814 37.3001 146.126 37.4764 144.154 36.6964C143.471 36.4226 142.961 36.0926 142.436 35.5639C141.907 35.0351 141.577 34.5289 141.304 33.8464C140.524 31.8701 140.7 27.1864 140.7 25.0001C140.7 22.8139 140.524 18.1264 141.304 16.1539C141.577 15.4714 141.907 14.9614 142.436 14.4364C142.965 13.9114 143.471 13.5776 144.154 13.3039C146.126 12.5239 150.814 12.7001 153 12.7001C155.186 12.7001 159.874 12.5239 161.846 13.3039C162.529 13.5776 163.039 13.9076 163.564 14.4364C164.092 14.9651 164.422 15.4714 164.696 16.1539C165.476 18.1264 165.3 22.8139 165.3 25.0001C165.3 27.1864 165.476 31.8701 164.692 33.8426Z" fill="black"/>
</g>
<g clip-path="url(#clip3_2874_4661)">
<path d="M227.578 35.4624H223.15V28.5282C223.15 26.8747 223.121 24.7461 220.848 24.7461C218.541 24.7461 218.189 26.5477 218.189 28.4078V35.4619H213.761V21.2024H218.011V23.1512H218.071C218.496 22.4238 219.111 21.8254 219.85 21.4198C220.588 21.0142 221.423 20.8165 222.265 20.8477C226.753 20.8477 227.58 23.7996 227.58 27.6398L227.578 35.4624ZM208.765 19.2534C207.346 19.2536 206.195 18.1033 206.195 16.6842C206.195 15.2651 207.345 14.1145 208.764 14.1143C210.183 14.1139 211.334 15.2642 211.334 16.6833C211.334 17.3648 211.063 18.0184 210.582 18.5004C210.1 18.9824 209.446 19.2532 208.765 19.2534ZM210.979 35.4625H206.546V21.2024H210.979V35.4624L210.979 35.4625ZM229.786 10.0022H204.321C203.118 9.98863 202.131 10.9527 202.116 12.1562V37.7266C202.13 38.9307 203.117 39.8957 204.321 39.8831H229.786C230.992 39.898 231.983 38.933 231.999 37.7266V12.1542C231.982 10.9484 230.992 9.98443 229.786 10.0002" fill="#0A66C2"/>
</g>
<defs>
<clipPath id="clip0_2874_4661">
<rect width="30" height="24.4922" fill="white" transform="translate(10 10)"/>
</clipPath>
<clipPath id="clip1_2874_4661">
<rect width="30" height="30.0001" fill="white" transform="translate(74 10)"/>
</clipPath>
<clipPath id="clip2_2874_4661">
<rect width="30" height="30" fill="white" transform="translate(138 10)"/>
</clipPath>
<clipPath id="clip3_2874_4661">
<rect width="30" height="29.8833" fill="white" transform="translate(202 10)"/>
</clipPath>
</defs>
</svg>
