<svg width="243" height="46" viewBox="0 0 243 46" fill="none" xmlns="http://www.w3.org/2000/svg">
<g clip-path="url(#clip0_27235_256)">
<g clip-path="url(#clip1_27235_256)">
<g clip-path="url(#clip2_27235_256)">
<path d="M8.49934 29.6667C5.20379 29.6232 2.54278 26.9622 2.49934 23.6667C2.54278 20.3711 5.20379 17.7101 8.49934 17.6667C11.7949 17.7101 14.4559 20.3711 14.4993 23.6667C14.4559 26.9622 11.7949 29.6232 8.49934 29.6667ZM8.49934 19C5.93612 19.0338 3.86642 21.1035 3.83268 23.6667C3.86642 26.2299 5.93612 28.2996 8.49934 28.3333C11.0626 28.2996 13.1323 26.2299 13.166 23.6667C13.1323 21.1035 11.0626 19.0338 8.49934 19ZM11.8327 24.3333H7.83268V20.3333H9.16601V23H11.8327V24.3333ZM14.0273 19.472L12.0213 17.472L12.9607 16.5273L14.9673 18.5273L14.0273 19.4713V19.472ZM2.97068 19.472L2.02734 18.5273L4.02134 16.5273L4.96468 17.472L2.97201 19.472H2.97068Z" fill="#23A6F0"/>
</g>
<path d="M24.74 23.244C25.308 22.668 25.712 22.216 25.952 21.888C26.192 21.56 26.312 21.228 26.312 20.892C26.312 20.556 26.184 20.272 25.928 20.04C25.672 19.8 25.348 19.68 24.956 19.68C24.268 19.68 23.696 20.032 23.24 20.736L22.1 20.076C22.468 19.524 22.872 19.108 23.312 18.828C23.76 18.548 24.332 18.408 25.028 18.408C25.732 18.408 26.348 18.632 26.876 19.08C27.404 19.52 27.668 20.124 27.668 20.892C27.668 21.324 27.556 21.736 27.332 22.128C27.108 22.52 26.696 23.024 26.096 23.64L24.128 25.644H27.932V27H22.196V25.8L24.74 23.244ZM32.0064 23.244C32.5744 22.668 32.9784 22.216 33.2184 21.888C33.4584 21.56 33.5784 21.228 33.5784 20.892C33.5784 20.556 33.4504 20.272 33.1944 20.04C32.9384 19.8 32.6144 19.68 32.2224 19.68C31.5344 19.68 30.9624 20.032 30.5064 20.736L29.3664 20.076C29.7344 19.524 30.1384 19.108 30.5784 18.828C31.0264 18.548 31.5984 18.408 32.2944 18.408C32.9984 18.408 33.6144 18.632 34.1424 19.08C34.6704 19.52 34.9344 20.124 34.9344 20.892C34.9344 21.324 34.8224 21.736 34.5984 22.128C34.3744 22.52 33.9624 23.024 33.3624 23.64L31.3944 25.644H35.1984V27H29.4624V25.8L32.0064 23.244ZM38.3488 23.544V27H37.0048V18.108H38.3488V21.78C38.5408 21.388 38.8288 21.08 39.2128 20.856C39.6048 20.632 40.0248 20.52 40.4728 20.52C41.1928 20.52 41.7728 20.74 42.2128 21.18C42.6608 21.62 42.8848 22.256 42.8848 23.088V27H41.5408V23.496C41.5408 22.32 41.0528 21.732 40.0768 21.732C39.6128 21.732 39.2088 21.888 38.8648 22.2C38.5208 22.504 38.3488 22.952 38.3488 23.544ZM45.0346 26.832C44.8666 26.656 44.7826 26.444 44.7826 26.196C44.7826 25.948 44.8666 25.74 45.0346 25.572C45.2106 25.396 45.4226 25.308 45.6706 25.308C45.9186 25.308 46.1306 25.396 46.3066 25.572C46.4826 25.74 46.5706 25.948 46.5706 26.196C46.5706 26.444 46.4826 26.656 46.3066 26.832C46.1306 27.008 45.9186 27.096 45.6706 27.096C45.4226 27.096 45.2106 27.008 45.0346 26.832ZM48.5979 26.832C48.4299 26.656 48.3459 26.444 48.3459 26.196C48.3459 25.948 48.4299 25.74 48.5979 25.572C48.7739 25.396 48.9859 25.308 49.2339 25.308C49.4819 25.308 49.6939 25.396 49.8699 25.572C50.0459 25.74 50.1339 25.948 50.1339 26.196C50.1339 26.444 50.0459 26.656 49.8699 26.832C49.6939 27.008 49.4819 27.096 49.2339 27.096C48.9859 27.096 48.7739 27.008 48.5979 26.832ZM52.1612 26.832C51.9932 26.656 51.9092 26.444 51.9092 26.196C51.9092 25.948 51.9932 25.74 52.1612 25.572C52.3372 25.396 52.5492 25.308 52.7972 25.308C53.0452 25.308 53.2572 25.396 53.4332 25.572C53.6092 25.74 53.6972 25.948 53.6972 26.196C53.6972 26.444 53.6092 26.656 53.4332 26.832C53.2572 27.008 53.0452 27.096 52.7972 27.096C52.5492 27.096 52.3372 27.008 52.1612 26.832Z" fill="#737373"/>
</g>
<g clip-path="url(#clip3_27235_256)">
<path d="M80.5 18.307L79.8425 18.5255C78.9214 18.814 77.9649 18.9737 77 19C76.133 19 75.339 18.5465 74.498 18.066C73.581 17.542 72.633 17 71.5 17C70.0615 17 68.4575 18.103 67.5 18.886V16H66.5V29C66.5003 29.2651 66.6057 29.5193 66.7932 29.7068C66.9807 29.8943 67.2349 29.9997 67.5 30H80.5V18.307ZM67.5 25.147C68.437 23.688 70.28 21.5 71.5 21.5C72.319 21.5 72.98 22.051 73.68 22.6345C74.4485 23.2745 75.319 24 76.5 24C77.618 23.9464 78.6809 23.4984 79.5 22.7355V25.2135C78.5781 25.7138 77.5488 25.9837 76.5 26C75.6978 25.9786 74.9053 25.8181 74.158 25.5255C73.3092 25.1974 72.4098 25.0196 71.5 25C70.0365 25 68.466 26.4795 67.5 27.579V25.147ZM71.5 18C72.367 18 73.161 18.4535 74.002 18.934C74.919 19.458 75.867 20 77 20C77.8438 19.9858 78.6829 19.872 79.5 19.661V21.3215C79.1585 21.723 77.958 23 76.5 23C75.681 23 75.02 22.449 74.32 21.8655C73.5515 21.2255 72.681 20.5 71.5 20.5C70.032 20.5 68.4685 22.17 67.5 23.4225V20.212C68.273 19.483 70.1295 18 71.5 18ZM67.6245 29C68.431 27.9545 70.205 26 71.5 26C72.3023 26.0214 73.0947 26.1819 73.842 26.4745C74.6908 26.8026 75.5902 26.9804 76.5 27C77.536 26.9901 78.5582 26.7618 79.5 26.33V29H67.6245Z" fill="#E77C40"/>
<path d="M90.748 19.728C90.004 19.728 89.456 19.98 89.104 20.484C88.752 20.988 88.572 21.668 88.564 22.524C88.764 22.3 89.052 22.092 89.428 21.9C89.804 21.7 90.22 21.6 90.676 21.6C91.428 21.6 92.056 21.852 92.56 22.356C93.072 22.852 93.328 23.516 93.328 24.348C93.328 25.172 93.052 25.836 92.5 26.34C91.956 26.844 91.268 27.096 90.436 27.096C89.092 27.096 88.164 26.496 87.652 25.296C87.364 24.608 87.22 23.832 87.22 22.968C87.22 22.104 87.312 21.384 87.496 20.808C87.68 20.232 87.932 19.776 88.252 19.44C88.876 18.784 89.64 18.456 90.544 18.456C91.456 18.456 92.28 18.74 93.016 19.308L92.308 20.352C92.124 20.192 91.876 20.048 91.564 19.92C91.26 19.792 90.988 19.728 90.748 19.728ZM90.484 22.848C90.004 22.848 89.6 22.984 89.272 23.256C88.952 23.52 88.792 23.868 88.792 24.3C88.792 24.724 88.948 25.092 89.26 25.404C89.572 25.708 89.964 25.86 90.436 25.86C90.908 25.86 91.3 25.724 91.612 25.452C91.924 25.172 92.08 24.82 92.08 24.396C92.08 23.964 91.936 23.6 91.648 23.304C91.36 23 90.972 22.848 90.484 22.848ZM98.1854 23.604V22.068H99.5294V23.604H100.537V24.888H99.5294V27H98.1854V24.888H94.5854V23.64L97.6694 18.612H99.2174L96.1814 23.604H98.1854ZM105.866 27V18.612H107.282V25.656H111.11V27H105.866ZM118.61 24.396H113.606C113.638 24.86 113.85 25.236 114.242 25.524C114.634 25.804 115.082 25.944 115.586 25.944C116.386 25.944 116.994 25.692 117.41 25.188L118.178 26.028C117.49 26.74 116.594 27.096 115.49 27.096C114.594 27.096 113.83 26.8 113.198 26.208C112.574 25.608 112.262 24.808 112.262 23.808C112.262 22.8 112.582 22 113.222 21.408C113.862 20.816 114.614 20.52 115.478 20.52C116.35 20.52 117.09 20.784 117.698 21.312C118.306 21.832 118.61 22.552 118.61 23.472V24.396ZM113.606 23.34H117.266C117.266 22.804 117.098 22.392 116.762 22.104C116.426 21.816 116.01 21.672 115.514 21.672C115.026 21.672 114.586 21.824 114.194 22.128C113.802 22.424 113.606 22.828 113.606 23.34ZM124.836 25.092C124.836 25.7 124.616 26.188 124.176 26.556C123.736 26.916 123.172 27.096 122.484 27.096C122.02 27.096 121.536 27.012 121.032 26.844C120.536 26.676 120.096 26.44 119.712 26.136L120.36 25.092C121.104 25.652 121.824 25.932 122.52 25.932C122.824 25.932 123.064 25.864 123.24 25.728C123.416 25.584 123.504 25.404 123.504 25.188C123.504 24.868 123.08 24.58 122.232 24.324C122.168 24.3 122.12 24.284 122.088 24.276C120.76 23.916 120.096 23.316 120.096 22.476C120.096 21.884 120.324 21.412 120.78 21.06C121.244 20.7 121.844 20.52 122.58 20.52C123.316 20.52 124.012 20.736 124.668 21.168L124.164 22.164C123.644 21.82 123.08 21.648 122.472 21.648C122.152 21.648 121.892 21.708 121.692 21.828C121.492 21.94 121.392 22.112 121.392 22.344C121.392 22.552 121.496 22.704 121.704 22.8C121.848 22.872 122.048 22.94 122.304 23.004C122.568 23.068 122.8 23.132 123 23.196C123.2 23.26 123.392 23.332 123.576 23.412C123.768 23.492 123.972 23.604 124.188 23.748C124.62 24.036 124.836 24.484 124.836 25.092ZM131.107 25.092C131.107 25.7 130.887 26.188 130.447 26.556C130.007 26.916 129.443 27.096 128.755 27.096C128.291 27.096 127.807 27.012 127.303 26.844C126.807 26.676 126.367 26.44 125.983 26.136L126.631 25.092C127.375 25.652 128.095 25.932 128.791 25.932C129.095 25.932 129.335 25.864 129.511 25.728C129.687 25.584 129.775 25.404 129.775 25.188C129.775 24.868 129.351 24.58 128.503 24.324C128.439 24.3 128.391 24.284 128.359 24.276C127.031 23.916 126.367 23.316 126.367 22.476C126.367 21.884 126.595 21.412 127.051 21.06C127.515 20.7 128.115 20.52 128.851 20.52C129.587 20.52 130.283 20.736 130.939 21.168L130.435 22.164C129.915 21.82 129.351 21.648 128.743 21.648C128.423 21.648 128.163 21.708 127.963 21.828C127.763 21.94 127.663 22.112 127.663 22.344C127.663 22.552 127.767 22.704 127.975 22.8C128.119 22.872 128.319 22.94 128.575 23.004C128.839 23.068 129.071 23.132 129.271 23.196C129.471 23.26 129.663 23.332 129.847 23.412C130.039 23.492 130.243 23.604 130.459 23.748C130.891 24.036 131.107 24.484 131.107 25.092ZM134.317 25.32C134.701 25.704 135.185 25.896 135.769 25.896C136.353 25.896 136.833 25.704 137.209 25.32C137.593 24.928 137.785 24.424 137.785 23.808C137.785 23.192 137.593 22.692 137.209 22.308C136.833 21.916 136.353 21.72 135.769 21.72C135.185 21.72 134.701 21.916 134.317 22.308C133.941 22.692 133.753 23.192 133.753 23.808C133.753 24.424 133.941 24.928 134.317 25.32ZM138.169 26.148C137.529 26.78 136.729 27.096 135.769 27.096C134.809 27.096 134.009 26.78 133.369 26.148C132.729 25.508 132.409 24.728 132.409 23.808C132.409 22.888 132.729 22.112 133.369 21.48C134.009 20.84 134.809 20.52 135.769 20.52C136.729 20.52 137.529 20.84 138.169 21.48C138.809 22.112 139.129 22.888 139.129 23.808C139.129 24.728 138.809 25.508 138.169 26.148ZM142.201 23.544V27H140.857V20.616H142.201V21.78C142.417 21.388 142.713 21.08 143.089 20.856C143.473 20.632 143.885 20.52 144.325 20.52C145.045 20.52 145.625 20.74 146.065 21.18C146.513 21.62 146.737 22.256 146.737 23.088V27H145.393V23.496C145.393 22.32 144.905 21.732 143.929 21.732C143.465 21.732 143.061 21.888 142.717 22.2C142.373 22.504 142.201 22.952 142.201 23.544ZM153.363 25.092C153.363 25.7 153.143 26.188 152.703 26.556C152.263 26.916 151.699 27.096 151.011 27.096C150.547 27.096 150.063 27.012 149.559 26.844C149.063 26.676 148.623 26.44 148.239 26.136L148.887 25.092C149.631 25.652 150.351 25.932 151.047 25.932C151.351 25.932 151.591 25.864 151.767 25.728C151.943 25.584 152.031 25.404 152.031 25.188C152.031 24.868 151.607 24.58 150.759 24.324C150.695 24.3 150.647 24.284 150.615 24.276C149.287 23.916 148.623 23.316 148.623 22.476C148.623 21.884 148.851 21.412 149.307 21.06C149.771 20.7 150.371 20.52 151.107 20.52C151.843 20.52 152.539 20.736 153.195 21.168L152.691 22.164C152.171 21.82 151.607 21.648 150.999 21.648C150.679 21.648 150.419 21.708 150.219 21.828C150.019 21.94 149.919 22.112 149.919 22.344C149.919 22.552 150.023 22.704 150.231 22.8C150.375 22.872 150.575 22.94 150.831 23.004C151.095 23.068 151.327 23.132 151.527 23.196C151.727 23.26 151.919 23.332 152.103 23.412C152.295 23.492 152.499 23.604 152.715 23.748C153.147 24.036 153.363 24.484 153.363 25.092Z" fill="#737373"/>
</g>
<g clip-path="url(#clip4_27235_256)">
<g clip-path="url(#clip5_27235_256)">
<path d="M183.333 28.8334H169V15.8334C169 15.7417 168.925 15.6667 168.833 15.6667H167.667C167.575 15.6667 167.5 15.7417 167.5 15.8334V30.1667C167.5 30.2584 167.575 30.3334 167.667 30.3334H183.333C183.425 30.3334 183.5 30.2584 183.5 30.1667V29.0001C183.5 28.9084 183.425 28.8334 183.333 28.8334ZM170.5 27.5001H181.667C181.758 27.5001 181.833 27.4251 181.833 27.3334V18.2501C181.833 18.1001 181.652 18.0272 181.548 18.1313L177.167 22.5126L174.554 19.9292C174.523 19.8982 174.481 19.8808 174.436 19.8808C174.392 19.8808 174.35 19.8982 174.319 19.9292L170.381 23.8792C170.366 23.8946 170.354 23.9128 170.346 23.9328C170.337 23.9528 170.333 23.9743 170.333 23.9959V27.3334C170.333 27.4251 170.408 27.5001 170.5 27.5001Z" fill="#23856D"/>
</g>
<path d="M192.544 18.612C193.816 18.612 194.744 18.856 195.328 19.344C195.912 19.832 196.204 20.584 196.204 21.6C196.204 22.616 195.904 23.36 195.304 23.832C194.712 24.304 193.8 24.54 192.568 24.54H191.08V27H189.664V18.612H192.544ZM192.724 23.256C193.508 23.256 194.04 23.108 194.32 22.812C194.608 22.508 194.752 22.068 194.752 21.492C194.752 20.908 194.572 20.496 194.212 20.256C193.852 20.016 193.288 19.896 192.52 19.896H191.08V23.256H192.724ZM201.223 21.876C200.559 21.876 200.059 22.092 199.723 22.524C199.387 22.956 199.219 23.536 199.219 24.264V27H197.875V20.616H199.219V21.9C199.435 21.5 199.727 21.172 200.095 20.916C200.471 20.66 200.867 20.528 201.283 20.52L201.295 21.876C201.271 21.876 201.247 21.876 201.223 21.876ZM204.215 25.32C204.599 25.704 205.083 25.896 205.667 25.896C206.251 25.896 206.731 25.704 207.107 25.32C207.491 24.928 207.683 24.424 207.683 23.808C207.683 23.192 207.491 22.692 207.107 22.308C206.731 21.916 206.251 21.72 205.667 21.72C205.083 21.72 204.599 21.916 204.215 22.308C203.839 22.692 203.651 23.192 203.651 23.808C203.651 24.424 203.839 24.928 204.215 25.32ZM208.067 26.148C207.427 26.78 206.627 27.096 205.667 27.096C204.707 27.096 203.907 26.78 203.267 26.148C202.627 25.508 202.307 24.728 202.307 23.808C202.307 22.888 202.627 22.112 203.267 21.48C203.907 20.84 204.707 20.52 205.667 20.52C206.627 20.52 207.427 20.84 208.067 21.48C208.707 22.112 209.027 22.888 209.027 23.808C209.027 24.728 208.707 25.508 208.067 26.148ZM216.66 20.616V26.184C216.66 27.312 216.352 28.156 215.736 28.716C215.128 29.284 214.344 29.568 213.384 29.568C212.424 29.568 211.556 29.268 210.78 28.668L211.416 27.648C212.04 28.12 212.668 28.356 213.3 28.356C213.94 28.356 214.444 28.192 214.812 27.864C215.188 27.536 215.376 27.012 215.376 26.292V25.476C215.176 25.852 214.888 26.152 214.512 26.376C214.144 26.6 213.728 26.712 213.264 26.712C212.416 26.712 211.72 26.416 211.176 25.824C210.632 25.232 210.36 24.496 210.36 23.616C210.36 22.736 210.632 22 211.176 21.408C211.72 20.816 212.412 20.52 213.252 20.52C214.1 20.52 214.788 20.868 215.316 21.564V20.616H216.66ZM211.68 23.568C211.68 24.088 211.84 24.54 212.16 24.924C212.488 25.3 212.924 25.488 213.468 25.488C214.02 25.488 214.464 25.304 214.8 24.936C215.144 24.568 215.316 24.112 215.316 23.568C215.316 23.016 215.144 22.552 214.8 22.176C214.456 21.792 214.012 21.6 213.468 21.6C212.924 21.6 212.488 21.796 212.16 22.188C211.84 22.58 211.68 23.04 211.68 23.568ZM222.155 21.876C221.491 21.876 220.991 22.092 220.655 22.524C220.319 22.956 220.151 23.536 220.151 24.264V27H218.807V20.616H220.151V21.9C220.367 21.5 220.659 21.172 221.027 20.916C221.403 20.66 221.799 20.528 222.215 20.52L222.227 21.876C222.203 21.876 222.179 21.876 222.155 21.876ZM229.717 24.396H224.713C224.745 24.86 224.957 25.236 225.349 25.524C225.741 25.804 226.189 25.944 226.693 25.944C227.493 25.944 228.101 25.692 228.517 25.188L229.285 26.028C228.597 26.74 227.701 27.096 226.597 27.096C225.701 27.096 224.937 26.8 224.305 26.208C223.681 25.608 223.369 24.808 223.369 23.808C223.369 22.8 223.689 22 224.329 21.408C224.969 20.816 225.721 20.52 226.585 20.52C227.457 20.52 228.197 20.784 228.805 21.312C229.413 21.832 229.717 22.552 229.717 23.472V24.396ZM224.713 23.34H228.373C228.373 22.804 228.205 22.392 227.869 22.104C227.533 21.816 227.117 21.672 226.621 21.672C226.133 21.672 225.693 21.824 225.301 22.128C224.909 22.424 224.713 22.828 224.713 23.34ZM235.943 25.092C235.943 25.7 235.723 26.188 235.283 26.556C234.843 26.916 234.279 27.096 233.591 27.096C233.127 27.096 232.643 27.012 232.139 26.844C231.643 26.676 231.203 26.44 230.819 26.136L231.467 25.092C232.211 25.652 232.931 25.932 233.627 25.932C233.931 25.932 234.171 25.864 234.347 25.728C234.523 25.584 234.611 25.404 234.611 25.188C234.611 24.868 234.187 24.58 233.339 24.324C233.275 24.3 233.227 24.284 233.195 24.276C231.867 23.916 231.203 23.316 231.203 22.476C231.203 21.884 231.431 21.412 231.887 21.06C232.351 20.7 232.951 20.52 233.687 20.52C234.423 20.52 235.119 20.736 235.775 21.168L235.271 22.164C234.751 21.82 234.187 21.648 233.579 21.648C233.259 21.648 232.999 21.708 232.799 21.828C232.599 21.94 232.499 22.112 232.499 22.344C232.499 22.552 232.603 22.704 232.811 22.8C232.955 22.872 233.155 22.94 233.411 23.004C233.675 23.068 233.907 23.132 234.107 23.196C234.307 23.26 234.499 23.332 234.683 23.412C234.875 23.492 235.079 23.604 235.295 23.748C235.727 24.036 235.943 24.484 235.943 25.092ZM242.213 25.092C242.213 25.7 241.993 26.188 241.553 26.556C241.113 26.916 240.549 27.096 239.861 27.096C239.397 27.096 238.913 27.012 238.409 26.844C237.913 26.676 237.473 26.44 237.089 26.136L237.737 25.092C238.481 25.652 239.201 25.932 239.897 25.932C240.201 25.932 240.441 25.864 240.617 25.728C240.793 25.584 240.881 25.404 240.881 25.188C240.881 24.868 240.457 24.58 239.609 24.324C239.545 24.3 239.497 24.284 239.465 24.276C238.137 23.916 237.473 23.316 237.473 22.476C237.473 21.884 237.701 21.412 238.157 21.06C238.621 20.7 239.221 20.52 239.957 20.52C240.693 20.52 241.389 20.736 242.045 21.168L241.541 22.164C241.021 21.82 240.457 21.648 239.849 21.648C239.529 21.648 239.269 21.708 239.069 21.828C238.869 21.94 238.769 22.112 238.769 22.344C238.769 22.552 238.873 22.704 239.081 22.8C239.225 22.872 239.425 22.94 239.681 23.004C239.945 23.068 240.177 23.132 240.377 23.196C240.577 23.26 240.769 23.332 240.953 23.412C241.145 23.492 241.349 23.604 241.565 23.748C241.997 24.036 242.213 24.484 242.213 25.092Z" fill="#737373"/>
</g>
</g>
<defs>
<clipPath id="clip0_27235_256">
<rect width="242" height="46" fill="white" transform="translate(0.5)"/>
</clipPath>
<clipPath id="clip1_27235_256">
<rect width="52" height="16" fill="white" transform="translate(0.5 15)"/>
</clipPath>
<clipPath id="clip2_27235_256">
<rect width="16" height="16" fill="white" transform="translate(0.5 15)"/>
</clipPath>
<clipPath id="clip3_27235_256">
<rect width="89" height="16" fill="white" transform="translate(65.5 15)"/>
</clipPath>
<clipPath id="clip4_27235_256">
<rect width="75" height="16" fill="white" transform="translate(167.5 15)"/>
</clipPath>
<clipPath id="clip5_27235_256">
<rect width="16" height="14.6667" fill="white" transform="translate(167.5 15.6667)"/>
</clipPath>
</defs>
</svg>
