<svg width="65" height="32" viewBox="0 0 65 32" fill="none" xmlns="http://www.w3.org/2000/svg">
<g filter="url(#filter0_d_31284_130)">
<rect x="4.5" y="2" width="56" height="24" rx="3" fill="#E74040"/>
<path d="M22.9184 9.214H25.1024V19H22.9184L18.2564 12.868V19H16.0724V9.214H18.1164L22.9184 15.514V9.214ZM34.7717 9.214V11.16H29.8997V13.176H34.2817V15.038H29.8997V17.068H34.9257V19H27.7157V9.214H34.7717ZM40.1279 14.842L41.8639 9.214H44.1459L45.8679 14.842L47.8139 9.214H50.1799L46.7639 19H45.1399L42.9979 12.196L40.8699 19H39.2459L35.8299 9.214H38.1959L40.1279 14.842Z" fill="white"/>
</g>
<defs>
<filter id="filter0_d_31284_130" x="0.5" y="0" width="64" height="32" filterUnits="userSpaceOnUse" color-interpolation-filters="sRGB">
<feFlood flood-opacity="0" result="BackgroundImageFix"/>
<feColorMatrix in="SourceAlpha" type="matrix" values="0 0 0 0 0 0 0 0 0 0 0 0 0 0 0 0 0 0 127 0" result="hardAlpha"/>
<feOffset dy="2"/>
<feGaussianBlur stdDeviation="2"/>
<feColorMatrix type="matrix" values="0 0 0 0 0 0 0 0 0 0 0 0 0 0 0 0 0 0 0.1 0"/>
<feBlend mode="normal" in2="BackgroundImageFix" result="effect1_dropShadow_31284_130"/>
<feBlend mode="normal" in="SourceGraphic" in2="effect1_dropShadow_31284_130" result="shape"/>
</filter>
</defs>
</svg>
